Alien Quadrilogy
 
http://www.imdb.com/title/tt0078748/
 
http://www.imdb.com/title/tt0090605/
 
http://www.imdb.com/title/tt0103644/
 
http://www.imdb.com/title/tt0118583/




Source  :
 
http://thepiratebay.org/torrent/4674934/Alien.Quadrilogy.720p.x264.HD-BiTs 

Alien.DirCut.1979.DTheater.720p.x264.DTS-iLL

Aliens.PROPER.HDTV.720p.x264.AC3-5.1-DiC

Alien.3.720p.HDTV.XVID-ANON

Alien.Resurrection.720p.HDTV.XVID-ANON





Info on movie Aliens (2):

ID                               : 1
Format                           : AVC
Format/Info                      : Advanced Video Codec
Format profile                   : Baseline@L2.1
Format settings, CABAC           : No
Format settings, ReFrames        : 3 frames
Codec ID                         : avc1
Codec ID/Info                    : Advanced Video Coding
Duration                         : 2h 17mn
Bit rate mode                    : Variable
Bit rate                         : 400 Kbps
Width                            : 480 pixels
Height                           : 272 pixels
Display aspect ratio             : 16:9
Frame rate mode                  : Variable
Frame rate                       : 23.976 fps
Minimum frame rate               : 23.810 fps
Maximum frame rate               : 24.390 fps
Color space                      : YUV
Chroma subsampling               : 4:2:0
Bit depth                        : 8 bits
Scan type                        : Progressive
Bits/(Pixel*Frame)               : 0.128
Stream size                      : 392 MiB (75%)
Writing library                  : x264 core 79

ID                               : 2
Format                           : AAC
Format/Info                      : Advanced Audio Codec
Format version                   : Version 4
Format profile                   : LC
Format settings, SBR             : No
Codec ID                         : 40
Duration                         : 2h 17mn
Bit rate mode                    : Variable
Bit rate                         : 128 Kbps
Maximum bit rate                 : 161 Kbps
Channel(s)                       : 2 channels
Channel positions                : Front: L R
Sampling rate                    : 48.0 KHz
Stream size                      : 126 MiB (24%)
Language                         : English


Screens:
 
http://img191.imageshack.us/img191/4729/alien3ooom4vthumbs20100.jpg
 
http://img807.imageshack.us/img807/5351/aliendircutooom4vthumbs.jpg
 
http://img17.imageshack.us/img17/2531/alienresurrectionooom4v.jpg
 
http://img295.imageshack.us/img295/3037/aliensooom4vthumbs20100.jpg





PLEASE LET THE TORRENT SEED AND SHARE IT WITH ALL YOU KNOW!

Let me know what I can do to be your trusted source of Handheld videos.
 
http://thepiratebay.org/user/on.off.on/ -OOO